<svg xmlns="http://www.w3.org/2000/svg" viewBox="0 0 2000 1000" width="2000" height="1000">
<path fill="#26A69A" d="M1362,544c-20,4-38,10-56,16-22,8-43,18-63,29-5,3-11,5-16,8-28,14-54,31-79,49-21,15-40,32-59,51-18,17-34,36-49,56-11,14-21,29-30,44-12,20-21,41-28,63-7,21-12,43-14,65-1,12-1,23-1,35,0,10,0,19,2,29,5,20,13,38,24,56,12,19,26,36,43,51,15,13,31,25,48,34,26,14,53,24,82,29,30,5,60,6,90,1,21-3,41-9,60-18,25-11,48-26,69-44,23-20,43-43,60-68,14-21,25-44,33-68,8-25,13-51,15-77,1-13,1-26,1-39,0-23-3-46-8-68-6-23-14-45-25-66-11-22-24-42-40-61-17-21-37-39-59-55-22-16-46-29-71-40-26-11-53-19-80-24-14-3-28-5-42-6zm-362-544C780-13,540-1,348,69,218,119,102,201,30,305c-4,6-7,12-11,18-24,38-41,79-51,122-1,5-2,10-3,15-18,74-13,151,15,224,19,48,47,93,82,131,7,8,14,15,22,22,50,49,109,88,173,115,2,1,4,1,6,2,78,32,160,48,244,45,49-2,98-9,145-22,46-12,90-30,131-53,39-22,76-48,110-79,20-18,39-38,57-59,28-34,53-71,73-110,13-25,25-52,34-79,18-53,24-109,18-164-3-28-9-56-18-82-12-37-29-72-49-105-18-28-38-55-61-80-24-26-51-50-79-71-31-23-64-43-98-60-33-16-68-29-103-38-31-8-62-12-94-11-30,1-59,5-88,13-33,9-65,22-96,38-27,15-53,32-78,51-23,18-44,38-64,59-16,18-31,37-44,57-14,21-26,44-36,68-12,29-21,59-27,90-7,34-11,69-11,104,1,34,5,68,14,101,4,17,9,33,15,49,18,48,46,92,82,129,5,5,10,10,15,15,8,9,16,17,25,25,30,29,63,54,98,75,3,2,6,3,9,5,2,1,3,2,5,3,9,5,18,9,27,13,44,21,90,34,138,40,25,3,51,4,76,2,26-2,52-7,77-14,28-8,55-20,81-34,26-15,51-33,74-53,24-21,46-45,65-71,18-24,34-51,47-78,14-29,25-60,32-92,5-21,8-42,10-63,3-22,3-44,2-66-1-10-1-21-2-31-3-20-8-39-16-58-9-22-21-42-35-61-14-19-30-36-48-52-19-16-39-31-61-43-22-12-45-22-69-30-24-8-49-14-74-17-25-3-51-4-76-1-27,2-54,8-80,16-26,8-51,19-75,32-24,13-47,28-69,45-21,16-41,35-59,54-18,20-34,41-48,64-6,19-11,39-14,59-3,20-5,39-10,58-15,19-5,38-9,57-12,19-3,38-5,57-5,19,0,38,1,57,4,20,3,39,8,58,15,20,7,39,15,57,25,18,10,35,22,51,35,16,13,31,28,45,44,13,15,25,31,35,48,4,18,6,37,6,56,0,18-3,37-7,54-6,23-15,45-26,66-11,22-25,42-41,61-16,19-35,37-55,53-20,16-42,30-65,42-23,12-47,22-72,30-25,8-51,14-77,18-27,4-54,6-81,5-28-1-55-4-83-9-27-5-54-13-80-22-26-9-52-20-77-33-24-13-48-28-70-44-22-17-42-35-61-55-18-19-34-40-48-62-13-21-24-44-32-67-9-25-15-50-18-76-2-21-1-42,1-63,2-21,4-41,8-61,12-20,17-38,30-55,48-16,17-31,36-44,57-13,20-24,42-32,64-9,24-15,48-19,73-4,25-5,50,0,75,5,25,10,50,19,73,28,23,38,47,56,70,72,21,83,43,92,63,99,84,103,103,105,123,105,142,103,161,99,180,94,198,87,215,79,232,70,248,60,264,49,279,38,293,26,306,14,319,2,331-10,342-23,353-37,363-51,372-66,380-81,387-97,393-113,398-130,402-147,404-165,405-183,405-201,404-220,401-239,397-258,391-278,384-298,376-318,366-339,355-360,342-381,328-403,313-425,296-447,279-469,261-492,242-514,223-537,202-559,181-582,159-604,136-627,113-649,89-671,65-693,41-714,17-735-8,-755-32,-775-57,-793-83,-810-109,-826-135,-841-162,-854-189,-866-216,-877-243,-886-270,-893-298,-899-325,-903-352,-906-379,-907-406,-906-433,-904-460,-900-486,-895-512,-888-537,-880-562,-870-587,-858-611,-845-634,-831-657,-815-679,-798-700,-779-720,-759-739,-738-757,-716-775,-692-791,-668-806,-643-820,-617-832,-591-843,-564-852,-537-860,-509-866,-481-871,-452-874,-423-875,-394-875,-364-873,-334-869,-304-864,-274-857,-244-848,-214-838,-184-826,-154-813,-124-798,-95-782,-66-764,-38-745,-10-725,17-703,43-681,69-657,93-633,117-608,140-582,162-555,183-528,203-500,221-472,238-444,254-416,268-388,281-359,292-331,302-302,310-273,317-244,322-215,325-186,327-157,327-128,326-99,324-70,320-41,315-12,308,16,300,44,291,72,281,100,269,127,256,153,243,179,228,205,212,230,195,254,178,278,160,302,142,325,123,347,104,369,85,390,65,411,45,431,25,451,5,470-15,488-35,506-55,523-75,539-95,555-115,571-135,586-155,600-175,613-195,626-215,638-235,649-255,659-275,669-295,677-315,685-335,692-355,698-375,703-395,707-415,710-435,712-455,713-475,713-495,712-515,710-535,707-555,703-575,698-595,692-615,685-635,677-655,669-675,659-695,649-715,638-735,626-755,613-775,600-795,586-815,571-835,555-855,539-875,523-895,506-915,488-935,470-955,451-975,431-995,411-1015,390-1035,369-1055,347-1075,325-1095,302-1115,278-1135,254-1155,230-1175,205-1195,180-1215,154-1235,128-1255,102-1275,75-1295,48-1315,21-1335-7,-1355-35,-1375-63,-1395-92,-1415-122,-1435-152,-1455-183,-1475-214,-1495-245,-1515-276,-1535-308,-1555-340,-1575-372,-1595-404,-1615-437,-1635-469,-1655-502,-1675-535,-1695-568,-1715-601,-1735-634,-1755-667,-1775-700,-1795-733,-1815-766,-1835-799,-1855-832,-1875-865,-1895-898,-1915-931,-1935-964,-1955-997,-1975-1030,-1995-1063,2000z"/>
</svg>